<svg width="27" height="50" viewBox="0 0 27 50" fill="none" xmlns="http://www.w3.org/2000/svg">
<path d="M24.8032 0H2.16375C1.09089 0 0.232422 0.858456 0.232422 1.93133V48.0687C0.232422 49.1415 1.09088 50 2.16375 50H24.8032C25.8761 50 26.7346 49.1415 26.7346 48.0687V1.93133C26.7346 0.858465 25.8761 0 24.8032 0ZM11.8741 3.11159H15.0931C15.5759 3.11159 16.0051 3.54082 16.0051 4.02356C16.0051 4.5063 15.6294 4.93553 15.0931 4.93553H11.8741C11.3913 4.93553 10.9621 4.50629 10.9621 4.02356C10.9621 3.54081 11.3378 3.11159 11.8741 3.11159ZM13.4836 46.9957C12.1424 46.9957 11.0695 45.9228 11.0695 44.5816C11.0695 43.2404 12.1424 42.1676 13.4836 42.1676C14.8248 42.1676 15.8977 43.2404 15.8977 44.5816C15.8977 45.9225 14.8248 46.9957 13.4836 46.9957ZM24.4278 39.2164H2.53939V8.10057H24.4814V39.2164H24.4278Z" fill="#3C336C"/>
</svg>
